<svg width="24" height="24" viewBox="0 0 24 24" fill="none" xmlns="http://www.w3.org/2000/svg">
<path d="M5.12005 13.8897C5.04034 13.8993 4.95976 13.8993 4.88005 13.8897H4.75005L4.60005 13.8097L4.49005 13.7497L2.05005 11.7497C1.85777 11.5972 1.73394 11.3746 1.70581 11.1308C1.67768 10.887 1.74755 10.642 1.90005 10.4497C2.05255 10.2574 2.27518 10.1336 2.51898 10.1055C2.76278 10.0773 3.00777 10.1472 3.20005 10.2997L3.97005 10.9297C4.177 9.35444 4.84264 7.87482 5.88414 6.67501C6.92564 5.47519 8.29699 4.60816 9.82752 4.18183C11.358 3.7555 12.9802 3.78869 14.492 4.27728C16.0038 4.76587 17.3385 5.68828 18.33 6.9297C18.4131 7.03199 18.4751 7.14969 18.5126 7.27603C18.55 7.40237 18.5621 7.53486 18.5482 7.66589C18.5342 7.79691 18.4945 7.92389 18.4314 8.03953C18.3682 8.15517 18.2828 8.25718 18.18 8.3397C18.0771 8.42221 17.9589 8.48355 17.8322 8.52018C17.7055 8.55681 17.5728 8.56801 17.4417 8.55314C17.3107 8.53827 17.1839 8.49761 17.0686 8.43352C16.9533 8.36943 16.8518 8.28317 16.77 8.1797C16.0246 7.26082 15.028 6.57856 13.9017 6.21606C12.7753 5.85355 11.5679 5.82645 10.4264 6.13805C9.28497 6.44964 8.25877 7.08649 7.47284 7.971C6.68692 8.85552 6.17521 9.94951 6.00005 11.1197L7.00005 10.3097C7.18624 10.2093 7.40188 10.1776 7.60908 10.2203C7.81629 10.263 8.00183 10.3774 8.13311 10.5433C8.2644 10.7092 8.33305 10.916 8.327 11.1275C8.32096 11.339 8.2406 11.5416 8.10005 11.6997L5.66005 13.6997C5.60551 13.7336 5.54871 13.7636 5.49005 13.7897C5.39349 13.8302 5.29293 13.8603 5.19005 13.8797L5.12005 13.8897ZM22 12.2997L19.56 10.2997C19.5021 10.2657 19.442 10.2357 19.38 10.2097L19.08 10.1197H19C18.9203 10.1101 18.8398 10.1101 18.76 10.1197H18.62L18.48 10.1997L18.37 10.2597L15.93 12.2597C15.7457 12.4122 15.6295 12.6317 15.607 12.8698C15.5845 13.108 15.6575 13.3454 15.81 13.5297C15.9625 13.714 16.182 13.8302 16.4202 13.8527C16.6584 13.8752 16.8957 13.8022 17.08 13.6497L18.08 12.8397C17.9213 14.0292 17.4157 15.1456 16.6264 16.0496C15.8372 16.9537 14.7992 17.6052 13.642 17.9231C12.4848 18.2409 11.2596 18.2109 10.1193 17.8369C8.97902 17.4628 7.97414 16.7612 7.23005 15.8197C7.14825 15.7162 7.04678 15.63 6.9315 15.5659C6.81622 15.5018 6.6894 15.4611 6.55835 15.4463C6.42729 15.4314 6.29458 15.4426 6.16787 15.4792C6.04116 15.5159 5.92295 15.5772 5.82005 15.6597C5.71732 15.7422 5.63192 15.8442 5.56874 15.9599C5.50557 16.0755 5.46587 16.2025 5.45193 16.3335C5.43799 16.4645 5.45009 16.597 5.48752 16.7234C5.52495 16.8497 5.58698 16.9674 5.67005 17.0697C6.66159 18.3111 7.99632 19.2335 9.50813 19.7221C11.0199 20.2107 12.642 20.2439 14.1726 19.8176C15.7031 19.3912 17.0745 18.5242 18.116 17.3244C19.1575 16.1246 19.8231 14.645 20.03 13.0697L20.81 13.7097C20.997 13.8675 21.239 13.9446 21.4828 13.9239C21.7266 13.9033 21.9522 13.7867 22.11 13.5997C22.2679 13.4127 22.3449 13.1707 22.3243 12.9269C22.3037 12.6831 22.187 12.4575 22 12.2997Z" fill="white"/>
</svg>

