<svg width="20" height="20" viewBox="0 0 20 20" fill="none" xmlns="http://www.w3.org/2000/svg">
<path d="M9.16651 6.66663C9.16651 6.44561 9.25431 6.23365 9.41059 6.07737C9.56687 5.92109 9.77883 5.83329 9.99984 5.83329C10.1447 5.83646 10.2862 5.87732 10.4104 5.95185C10.5346 6.02638 10.6372 6.132 10.7082 6.25829C10.7881 6.37962 10.8315 6.52135 10.8332 6.66663C10.8332 6.88764 10.7454 7.0996 10.5891 7.25588C10.4328 7.41216 10.2209 7.49996 9.99984 7.49996C9.77883 7.49996 9.56687 7.41216 9.41059 7.25588C9.25431 7.0996 9.16651 6.88764 9.16651 6.66663ZM18.3332 9.99996C18.3332 11.6481 17.8444 13.2593 16.9288 14.6297C16.0131 16.0001 14.7116 17.0682 13.1889 17.699C11.6662 18.3297 9.9906 18.4947 8.37409 18.1732C6.75758 17.8516 5.27272 17.058 4.10728 15.8925C2.94185 14.7271 2.14817 13.2422 1.82663 11.6257C1.50509 10.0092 1.67011 8.33365 2.30084 6.81093C2.93158 5.28821 3.99968 3.98672 5.37009 3.07105C6.7405 2.15537 8.35166 1.66663 9.99984 1.66663C11.0942 1.66663 12.1778 1.88217 13.1889 2.30096C14.1999 2.71975 15.1186 3.33358 15.8924 4.1074C16.6662 4.88122 17.28 5.79988 17.6988 6.81093C18.1176 7.82198 18.3332 8.90561 18.3332 9.99996ZM16.6665 9.99996C16.6665 8.68142 16.2755 7.39249 15.543 6.29616C14.8104 5.19983 13.7692 4.34535 12.5511 3.84076C11.3329 3.33618 9.99245 3.20416 8.69924 3.46139C7.40603 3.71863 6.21815 4.35356 5.2858 5.28591C4.35345 6.21826 3.71851 7.40615 3.46127 8.69936C3.20404 9.99256 3.33606 11.333 3.84064 12.5512C4.34523 13.7694 5.19971 14.8105 6.29604 15.5431C7.39237 16.2756 8.6813 16.6666 9.99984 16.6666C11.768 16.6666 13.4636 15.9642 14.7139 14.714C15.9641 13.4638 16.6665 11.7681 16.6665 9.99996ZM10.8332 11.6666V9.16663C10.8332 8.94561 10.7454 8.73365 10.5891 8.57737C10.4328 8.42109 10.2209 8.33329 9.99984 8.33329H9.16651C8.94549 8.33329 8.73353 8.42109 8.57725 8.57737C8.42097 8.73365 8.33317 8.94561 8.33317 9.16663C8.33317 9.38764 8.42097 9.5996 8.57725 9.75588C8.73353 9.91216 8.94549 9.99996 9.16651 9.99996V12.5C9.16651 12.721 9.25431 12.9329 9.41059 13.0892C9.56687 13.2455 9.77883 13.3333 9.99984 13.3333H10.8332C11.0542 13.3333 11.2661 13.2455 11.4224 13.0892C11.5787 12.9329 11.6665 12.721 11.6665 12.5C11.6665 12.2789 11.5787 12.067 11.4224 11.9107C11.2661 11.7544 11.0542 11.6666 10.8332 11.6666Z" fill="white" fill-opacity="0.5"/>
</svg>

