<svg width="38" height="38" viewBox="0 0 38 38" fill="none" xmlns="http://www.w3.org/2000/svg">
<path d="M11.6231 15.9672L19.0034 8.58987L26.3867 15.9732L30.6787 11.6783L19.0034 0L7.32815 11.6753L11.6231 15.9672Z" fill="#F3BA2F"/>
<path d="M0 19.0007L4.29337 14.7073L8.58673 19.0007L4.29337 23.294L0 19.0007Z" fill="#F3BA2F"/>
<path d="M11.6227 22.0329L19.0031 29.4132L26.3864 22.0299L30.6813 26.3188L30.6783 26.3218L19.0031 38.0001L7.3278 26.3278L7.3218 26.3218L11.6227 22.0329Z" fill="#F3BA2F"/>
<path d="M29.4127 19.0018L33.7061 14.7084L37.9994 19.0018L33.7061 23.2951L29.4127 19.0018Z" fill="#F3BA2F"/>
<path d="M23.3581 18.9986L19.0031 14.6407L15.7827 17.8611L15.4105 18.2303L14.6481 18.9926L14.6421 18.9986L14.6481 19.0076L19.0031 23.3596L23.3581 19.0016L23.3611 18.9986H23.3581Z" fill="#F3BA2F"/>
</svg>

