<svg width="42" height="42" viewBox="0 0 42 42" fill="none" xmlns="http://www.w3.org/2000/svg">
<g clip-path="url(#clip0_2016_32298)">
<path d="M21 42C32.598 42 42 32.598 42 21C42 9.40202 32.598 0 21 0C9.40202 0 0 9.40202 0 21C0 32.598 9.40202 42 21 42Z" fill="black"/>
<path d="M9.19668 10.0537L18.2454 22.1526L9.13965 31.9895H11.1892L19.1615 23.3769L25.6026 31.9895H32.5767L23.0186 19.2102L31.4943 10.0537H29.4448L22.103 17.9855L16.1708 10.0537H9.19668ZM12.2106 11.5632H15.4144L29.5624 30.48H26.3585L12.2106 11.5632Z" fill="white"/>
</g>
<defs>
<clipPath id="clip0_2016_32298">
<rect width="42" height="42" fill="white"/>
</clipPath>
</defs>
</svg>

