<svg width="24" height="18" viewBox="0 0 24 18" fill="none" xmlns="http://www.w3.org/2000/svg">
<path d="M11.5316 4.06452L9.9871 4.16903C8.98839 2.98452 6.18968 0 3.40258 0C3.40258 0 1.11484 3.43742 3.35613 8.02452C2.71742 8.98839 2.32258 9.48774 2.24129 10.6374L0 10.9742L0.243871 12.1123L2.28774 11.8103L2.45032 12.6348L0.627097 13.7265L1.1729 14.76L2.85677 13.7265C4.19226 16.56 7.57161 18 11.5316 18C15.4916 18 18.871 16.56 20.2065 13.7265L21.8903 14.76L22.4361 13.7265L20.6129 12.6348L20.7755 11.8103L22.8194 12.1123L23.0632 10.9742L20.8219 10.6374C20.7406 9.48774 20.3458 8.98839 19.7071 8.02452C21.9484 3.43742 19.6606 0 19.6606 0C16.8736 0 14.0748 2.98452 13.0761 4.16903L11.5316 4.06452ZM8.04774 7.54839C8.68645 7.54839 9.20903 8.07097 9.20903 8.70968C9.20903 9.34839 8.68645 9.87097 8.04774 9.87097C7.40903 9.87097 6.88645 9.34839 6.88645 8.70968C6.88645 8.07097 7.40903 7.54839 8.04774 7.54839ZM15.0155 7.54839C15.6542 7.54839 16.1768 8.07097 16.1768 8.70968C16.1768 9.34839 15.6542 9.87097 15.0155 9.87097C14.3768 9.87097 13.8542 9.34839 13.8542 8.70968C13.8542 8.07097 14.3768 7.54839 15.0155 7.54839ZM10.3703 11.0323H12.6929L11.88 12.6465C12.1123 13.3897 12.7626 13.9355 13.5639 13.9355C14.5277 13.9355 15.3058 13.1574 15.3058 12.1935H15.8865C15.8865 13.471 14.8413 14.5161 13.5639 14.5161C12.6929 14.5161 11.9381 14.04 11.5316 13.3548C11.1252 14.04 10.3703 14.5161 9.49936 14.5161C8.22194 14.5161 7.17677 13.471 7.17677 12.1935H7.75742C7.75742 13.1574 8.53548 13.9355 9.49936 13.9355C10.3006 13.9355 10.951 13.3897 11.1832 12.6465L10.3703 11.0323Z" fill="white"/>
</svg>

