<svg width="36" height="36" viewBox="0 0 36 36" fill="none" xmlns="http://www.w3.org/2000/svg">
<path fill-rule="evenodd" clip-rule="evenodd" d="M10.5586 13H0.239938C0.176302 13 0.115269 13.0253 0.0702891 13.0703C0.0252614 13.1153 0 13.1763 0 13.24V23.5587C0 23.6223 0.0252614 23.6834 0.0702891 23.7283C0.115269 23.7734 0.176302 23.7986 0.239938 23.7986H10.5586C10.6223 23.7986 10.6834 23.7734 10.7283 23.7283C10.7734 23.6834 10.7986 23.6223 10.7986 23.5587V13.24C10.7986 13.1763 10.7734 13.1153 10.7283 13.0703C10.6834 13.0253 10.6223 13 10.5586 13ZM7.19907 19.9591C7.19907 20.0228 7.17381 20.0838 7.12878 20.1288C7.0838 20.1738 7.02277 20.1991 6.95914 20.1991H3.8395C3.77586 20.1991 3.71483 20.1738 3.6698 20.1288C3.62482 20.0838 3.59956 20.0228 3.59956 19.9591V16.8395C3.59956 16.7759 3.62482 16.7148 3.6698 16.6698C3.71483 16.6248 3.77586 16.5996 3.8395 16.5996H6.95914C7.02277 16.5996 7.0838 16.6248 7.12878 16.6698C7.17381 16.7148 7.19907 16.7759 7.19907 16.8395V19.9591ZM32.1619 16.5999H29.0424C28.9098 16.5999 28.8024 16.7074 28.8024 16.8399V19.9595C28.8024 20.092 28.9098 20.1995 29.0424 20.1995H32.1619C32.2945 20.1995 32.4019 20.092 32.4019 19.9595V16.8399C32.4019 16.7074 32.2945 16.5999 32.1619 16.5999ZM25.4414 13.0003H28.5609C28.6935 13.0003 28.8009 13.1077 28.8009 13.2403V16.3599C28.8009 16.4924 28.6935 16.5998 28.5609 16.5998H25.4414C25.3088 16.5998 25.2014 16.4924 25.2014 16.3599V13.2403C25.2014 13.1077 25.3088 13.0003 25.4414 13.0003ZM35.7601 13.0003H32.6404C32.5079 13.0003 32.4004 13.1077 32.4004 13.2403V16.3599C32.4004 16.4924 32.5079 16.5998 32.6404 16.5998H35.7601C35.8926 16.5998 36 16.4924 36 16.3599V13.2403C36 13.1077 35.8926 13.0003 35.7601 13.0003ZM25.4414 20.1993H28.5609C28.6935 20.1993 28.8009 20.3067 28.8009 20.4393V23.5589C28.8009 23.6914 28.6935 23.7989 28.5609 23.7989H25.4414C25.3088 23.7989 25.2014 23.6914 25.2014 23.5589V20.4393C25.2014 20.3067 25.3088 20.1993 25.4414 20.1993ZM35.7601 20.1993H32.6404C32.5079 20.1993 32.4004 20.3067 32.4004 20.4393V23.5589C32.4004 23.6914 32.5079 23.7989 32.6404 23.7989H35.7601C35.8926 23.7989 36 23.6914 36 23.5589V20.4393C36 20.3067 35.8926 20.1993 35.7601 20.1993ZM20.0375 13.0003H23.1571C23.2896 13.0003 23.3971 13.1077 23.3971 13.2403V16.3599C23.3971 16.4924 23.2896 16.5998 23.1571 16.5998H20.0375C19.905 16.5998 19.7975 16.4924 19.7975 16.3599V13.2403C19.7975 13.1077 19.905 13.0003 20.0375 13.0003ZM23.1571 20.1993H20.0375C19.905 20.1993 19.7975 20.3067 19.7975 20.4393V23.5589C19.7975 23.6914 19.905 23.7989 20.0375 23.7989H23.1571C23.2896 23.7989 23.3971 23.6914 23.3971 23.5589V20.4393C23.3971 20.3067 23.2896 20.1993 23.1571 20.1993ZM19.7272 16.6672C19.7722 16.7121 19.7975 16.7732 19.7975 16.8368V19.9564C19.7975 20.0201 19.7722 20.0811 19.7272 20.1261C19.6822 20.1711 19.6212 20.1964 19.5575 20.1964H16.198V23.5533C16.198 23.6169 16.1726 23.678 16.1277 23.7229C16.0826 23.768 16.0216 23.7932 15.958 23.7932H12.8384C12.7747 23.7932 12.7137 23.768 12.6687 23.7229C12.6237 23.678 12.5984 23.6169 12.5984 23.5533V13.24C12.5984 13.1763 12.6237 13.1153 12.6687 13.0703C12.7137 13.0253 12.7747 13 12.8384 13H15.958C16.0216 13 16.0826 13.0253 16.1277 13.0703C16.1726 13.1153 16.198 13.1763 16.198 13.24V16.5969H19.5575C19.6212 16.5969 19.6822 16.6221 19.7272 16.6672Z" fill="white"/>
</svg>

