<svg width="16" height="16" viewBox="0 0 16 16" fill="none" xmlns="http://www.w3.org/2000/svg">
<path d="M11.8068 7.52646C11.8693 7.58844 11.9189 7.66217 11.9527 7.74341C11.9866 7.82465 12.004 7.91179 12.004 7.9998C12.004 8.08781 11.9866 8.17494 11.9527 8.25618C11.9189 8.33742 11.8693 8.41116 11.8068 8.47313L6.47346 13.8065C6.41148 13.8689 6.33775 13.9185 6.25651 13.9524C6.17527 13.9862 6.08813 14.0037 6.00012 14.0037C5.91211 14.0037 5.82498 13.9862 5.74374 13.9524C5.6625 13.9185 5.58876 13.8689 5.52679 13.8065C5.4643 13.7445 5.41471 13.6708 5.38086 13.5895C5.34702 13.5083 5.32959 13.4211 5.32959 13.3331C5.32959 13.2451 5.34702 13.158 5.38086 13.0767C5.41471 12.9955 5.4643 12.9218 5.52679 12.8598L10.3935 7.9998L5.52679 3.1398C5.40125 3.01426 5.33073 2.844 5.33073 2.66646C5.33073 2.48893 5.40125 2.31867 5.52679 2.19313C5.65232 2.0676 5.82259 1.99707 6.00012 1.99707C6.17766 1.99707 6.34792 2.0676 6.47346 2.19313L11.8068 7.52646Z" fill="white"/>
</svg>

