<svg width="24" height="24" viewBox="0 0 24 24" fill="none" xmlns="http://www.w3.org/2000/svg">
<g opacity="0.5">
<path d="M6.29006 11.2902C6.19633 11.3831 6.12194 11.4937 6.07117 11.6156C6.0204 11.7375 5.99426 11.8682 5.99426 12.0002C5.99426 12.1322 6.0204 12.2629 6.07117 12.3848C6.12194 12.5066 6.19633 12.6172 6.29006 12.7102L14.2901 20.7102C14.383 20.8039 14.4936 20.8783 14.6155 20.9291C14.7373 20.9798 14.868 21.006 15.0001 21.006C15.1321 21.006 15.2628 20.9798 15.3846 20.9291C15.5065 20.8783 15.6171 20.8039 15.7101 20.7102C15.8038 20.6172 15.8782 20.5066 15.929 20.3848C15.9797 20.2629 16.0059 20.1322 16.0059 20.0002C16.0059 19.8682 15.9797 19.7375 15.929 19.6156C15.8782 19.4937 15.8038 19.3831 15.7101 19.2902L8.41006 12.0002L15.7101 4.71019C15.8984 4.52188 16.0042 4.26649 16.0042 4.00019C16.0042 3.73388 15.8984 3.47849 15.7101 3.29019C15.5218 3.10188 15.2664 2.99609 15.0001 2.99609C14.7338 2.99609 14.4784 3.10188 14.2901 3.29019L6.29006 11.2902Z" fill="white"/>
</g>
</svg>

