<svg width="36" height="36" viewBox="0 0 36 36" fill="none" xmlns="http://www.w3.org/2000/svg">
<g clip-path="url(#clip0_2016_25419)">
<path d="M21.3285 11.0728C21.3285 5.90723 18.8385 1.4569 16.9312 -5.18691e-05C16.9312 -5.18691e-05 16.7987 -0.0795221 16.7987 0.132398C16.6398 10.1192 11.5802 12.8476 8.77224 16.4768C2.33516 24.9006 8.32191 34.1192 14.4146 35.8145C17.8318 36.7682 13.6199 34.1192 13.0901 28.5562C12.4544 21.8013 21.3285 16.6622 21.3285 11.0728Z" fill="white"/>
<path d="M24.6662 14.4906C24.6397 14.4641 24.5867 14.4641 24.5337 14.4906C24.5337 14.4906 24.5337 14.4906 24.5072 14.5171C24.4013 15.7621 23.0238 18.4641 21.302 20.9277C15.4476 29.2985 18.7854 33.325 20.6662 35.4972C21.7523 36.7687 20.6662 35.4972 23.3947 34.1992C23.6066 34.0932 28.6927 31.3912 29.249 25.272C29.8053 19.3118 26.0172 15.5767 24.6662 14.4906Z" fill="#059BDC"/>
</g>
<defs>
<clipPath id="clip0_2016_25419">
<rect width="36" height="36" fill="white"/>
</clipPath>
</defs>
</svg>

