<svg width="26" height="22" viewBox="0 0 26 22" fill="none" xmlns="http://www.w3.org/2000/svg">
<g opacity="0.3">
<path fill-rule="evenodd" clip-rule="evenodd" d="M8.80076 17.7678C8.18016 17.2903 7.81104 16.719 7.81104 16.0577V12.5433C7.81496 12.5159 7.8212 12.4888 7.8297 12.4625C7.82001 12.4174 7.81377 12.3716 7.81104 12.3256C7.81104 10.018 12.19 8.81128 16.5191 8.81128C20.8483 8.81128 25.2272 10.018 25.2272 12.3256C25.2245 12.3716 25.2183 12.4174 25.2086 12.4625C25.2171 12.4888 25.2233 12.5159 25.2272 12.5433V16.0577C25.2245 16.2975 25.1737 16.5344 25.078 16.7543C25.0809 16.7561 25.0839 16.758 25.0868 16.7598C23.6612 18.7021 20.8469 20.0074 16.8301 20.0074C13.5563 20.0074 10.7122 19.1402 8.80076 17.7678ZM17.1411 15.8275C18.6098 15.8011 20.0706 15.607 21.4952 15.2491V17.6873C20.0645 18.0845 18.5885 18.2956 17.1038 18.3155C17.1257 18.2599 17.1384 18.2011 17.1411 18.1414V15.8275ZM15.9344 18.3155C14.4498 18.2956 12.9738 18.0845 11.5431 17.6873V15.2491C12.9677 15.607 14.4285 15.8011 15.8971 15.8275V18.1414C15.8999 18.2011 15.9125 18.2599 15.9344 18.3155ZM22.7081 14.8634C23.1551 14.6966 23.5826 14.4818 23.9832 14.2227V16.0577C23.9832 16.4184 23.5416 16.8414 22.7392 17.2208V15.0314C22.7349 14.9744 22.7245 14.9181 22.7081 14.8634ZM10.2991 17.2208C9.49667 16.8414 9.05505 16.4184 9.05505 16.0577V14.2227C9.45566 14.4818 9.8832 14.6966 10.3302 14.8634C10.3138 14.9181 10.3034 14.9744 10.2991 15.0314V17.2208Z" fill="white"/>
<path fill-rule="evenodd" clip-rule="evenodd" d="M1.35766 10.3045C1.35916 10.3006 1.36067 10.2967 1.3622 10.2928L1.39952 10.2368C0.534926 9.7081 0 9.04255 0 8.24638V4.73204C0.00392595 4.70461 0.0101688 4.67756 0.0186606 4.65118C0.00897609 4.60611 0.00273756 4.56036 0 4.51434C0 2.20669 4.37893 1 8.7081 1C13.0373 1 17.4162 2.20669 17.4162 4.51434C17.4135 4.56036 17.4072 4.60611 17.3975 4.65118C17.406 4.67756 17.4123 4.70461 17.4162 4.73204V8.24638C17.4135 8.48624 17.3627 8.72311 17.2669 8.94303C17.5268 9.10351 17.7407 9.2666 17.9159 9.42894C15.9451 11.103 12.6949 12.1962 9.0191 12.1962C6.03128 12.1962 3.32461 11.4739 1.35766 10.3045ZM9.33011 8.01624C10.7987 7.98982 12.2596 7.79574 13.6842 7.43777V9.87604C12.2534 10.2732 10.7775 10.4843 9.29279 10.5043C9.31471 10.4487 9.32732 10.3898 9.33011 10.3301V8.01624ZM8.12341 10.5043C6.63872 10.4843 5.16278 10.2732 3.73204 9.87604V7.43777C5.15663 7.79574 6.61745 7.98982 8.08609 8.01624V10.3301C8.08889 10.3898 8.10149 10.4487 8.12341 10.5043ZM14.8971 7.05213C15.344 6.88533 15.7716 6.67052 16.1722 6.41146V8.24638C16.1722 8.60715 15.7306 9.03011 14.9282 9.40954V7.22007C14.9238 7.16314 14.9134 7.10684 14.8971 7.05213ZM2.48803 9.40954C1.68564 9.03011 1.24401 8.60715 1.24401 8.24638V6.41146C1.64462 6.67052 2.07216 6.88533 2.51913 7.05213C2.50278 7.10684 2.49235 7.16314 2.48803 7.22007V9.40954Z" fill="white"/>
</g>
</svg>

