<svg width="12" height="12" viewBox="0 0 12 12" fill="none" xmlns="http://www.w3.org/2000/svg">
<path d="M7.80646 6.47333L5.1398 9.14C5.01426 9.26554 4.844 9.33606 4.66646 9.33606C4.48893 9.33606 4.31867 9.26554 4.19313 9.14C4.0676 9.01446 3.99707 8.8442 3.99707 8.66667C3.99707 8.48913 4.0676 8.31887 4.19313 8.19334L6.39313 6L4.19313 3.80667C4.0676 3.68113 3.99707 3.51087 3.99707 3.33333C3.99707 3.24543 4.01438 3.15838 4.04802 3.07717C4.08166 2.99595 4.13097 2.92216 4.19313 2.86C4.25529 2.79784 4.32908 2.74854 4.4103 2.7149C4.49151 2.68126 4.57856 2.66394 4.66646 2.66394C4.844 2.66394 5.01426 2.73447 5.1398 2.86L7.80646 5.52667C7.86895 5.58864 7.91855 5.66238 7.95239 5.74362C7.98624 5.82486 8.00366 5.91199 8.00366 6C8.00366 6.08801 7.98624 6.17515 7.95239 6.25639C7.91855 6.33763 7.86895 6.41136 7.80646 6.47333Z" fill="white"/>
</svg>

