<svg width="22" height="22" viewBox="0 0 22 22" fill="none" xmlns="http://www.w3.org/2000/svg">
<path d="M3.6772 7.22067C3.21245 6.76063 3.22738 6.01067 3.6772 5.55496L4.1447 5.08353L5.55112 3.67711C5.58019 3.65 5.61123 3.61622 5.64541 3.59854C5.87107 3.41396 6.15725 3.31979 6.44842 3.33431C6.73959 3.34883 7.01498 3.471 7.22115 3.67711L9.07936 5.53532C9.22393 5.68146 9.704 6.16389 9.8419 6.30139C10.0473 6.5077 10.1693 6.78257 10.1845 7.07328C10.1997 7.36399 10.1071 7.6501 9.9244 7.87674C9.87922 7.93095 9.43529 8.37881 9.3744 8.43852L8.4394 9.37391L7.96797 9.84534C7.5319 10.3018 6.73755 10.3022 6.30187 9.84534L3.6772 7.22067ZM3.04077 5.07921C2.80625 4.80262 2.68417 4.44803 2.69872 4.08569C2.71328 3.72334 2.8634 3.37968 3.11935 3.12279C3.64184 2.60029 4.52184 2.57279 5.0797 3.04029C5.0522 3.06779 5.02077 3.09529 4.9972 3.12279L3.04077 5.07921ZM9.92832 8.99284C9.98529 8.9233 10.4351 8.49549 10.4823 8.43499L21.5781 19.5265C22.1402 20.0698 22.141 21.0347 21.5781 21.5776C21.0344 22.1398 20.0707 22.1405 19.5274 21.5776L8.43547 10.4857C8.47083 10.4543 8.49833 10.4268 8.5219 10.3993L9.92832 8.99284ZM1.02935 13.0632C1.64342 11.3367 2.49635 9.70479 3.56327 8.21499L5.58255 10.2343C3.66227 12.5144 2.03506 15.0632 0.746102 17.7429C0.679318 17.8843 0.541818 17.9668 0.392533 17.9668C0.166248 17.97 -0.0282167 17.7633 0.00360481 17.5308C0.168976 16.0065 0.513519 14.507 1.02935 13.0632ZM17.7395 0.746011C15.0461 2.0389 12.525 3.66352 10.2348 5.58207C9.84307 5.18528 8.62797 3.97371 8.21547 3.56279C10.9649 1.60157 14.1703 0.376303 17.5269 0.00351359C17.9552 -0.0518791 18.1363 0.563333 17.7395 0.746011Z" fill="white"/>
</svg>

