<svg width="24" height="24" viewBox="0 0 24 24" fill="none" xmlns="http://www.w3.org/2000/svg">
<path d="M17.7102 16.2899C17.8985 16.4782 18.0043 16.7336 18.0043 16.9999C18.0043 17.2662 17.8985 17.5216 17.7102 17.7099C17.5219 17.8982 17.2665 18.004 17.0002 18.004C16.7339 18.004 16.4785 17.8982 16.2902 17.7099L12.0002 13.4099L7.71019 17.7099C7.52188 17.8982 7.26649 18.004 7.00019 18.004C6.73388 18.004 6.47849 17.8982 6.29019 17.7099C6.10188 17.5216 5.99609 17.2662 5.99609 16.9999C5.99609 16.7336 6.10188 16.4782 6.29019 16.2899L10.5902 11.9999L6.29019 7.70994C6.10188 7.52164 5.99609 7.26624 5.99609 6.99994C5.99609 6.73364 6.10188 6.47825 6.29019 6.28994C6.47849 6.10164 6.73388 5.99585 7.00019 5.99585C7.26649 5.99585 7.52188 6.10164 7.71019 6.28994L12.0002 10.5899L16.2902 6.28994C16.4785 6.10164 16.7339 5.99585 17.0002 5.99585C17.2665 5.99585 17.5219 6.10164 17.7102 6.28994C17.8985 6.47825 18.0043 6.73364 18.0043 6.99994C18.0043 7.26624 17.8985 7.52164 17.7102 7.70994L13.4102 11.9999L17.7102 16.2899Z" fill="white"/>
</svg>

