<svg width="25" height="22" viewBox="0 0 25 22" fill="none" xmlns="http://www.w3.org/2000/svg">
<path fill-rule="evenodd" clip-rule="evenodd" d="M24.0057 11.0374C24.0131 11.0322 24.0205 11.027 24.0277 11.0217C24.0277 11.0155 24.0277 11.0094 24.0278 11.0033C24.0252 11.0016 24.0224 11.0001 24.0197 10.9986C24.0139 10.9953 24.0082 10.9921 24.0035 10.9878C23.5693 10.5897 23.1352 10.1915 22.7012 9.79329C22.2656 9.39373 21.83 8.99417 21.3943 8.59467C21.3773 8.57911 21.3588 8.565 21.3465 8.55566C21.3424 8.55254 21.339 8.54995 21.3366 8.54803L18.6484 11.0121L21.3355 13.4754C21.3413 13.4702 21.3477 13.4646 21.3545 13.4586C21.3724 13.4429 21.3932 13.4247 21.4135 13.4061C21.6567 13.1832 21.8998 12.9604 22.143 12.7375C22.7486 12.1824 23.3542 11.6273 23.96 11.0724C23.974 11.0596 23.9899 11.0485 24.0057 11.0374ZM4.63504 6.75165L7.3328 9.22431L12.0006 4.94575L16.6734 9.22922C16.806 9.13521 19.3334 6.80775 19.3635 6.75796L11.9906 0C11.8835 0.0748 4.66544 6.70186 4.63504 6.75165ZM11.9962 17.0663L7.32312 12.7828C6.41712 13.6108 5.51832 14.4323 4.63112 15.2434L12.0019 22L19.3716 15.2448L16.6798 12.7805L16.1532 13.2631L15.6353 13.7379L15.1174 14.2127L14.5994 14.6874L14.0744 15.1686L13.5565 15.6434L13.0386 16.1182C12.9867 16.1657 12.935 16.2132 12.8832 16.2608C12.7626 16.3717 12.6419 16.4826 12.5204 16.5927C12.4656 16.6423 12.4115 16.6926 12.3571 16.743C12.2403 16.8515 12.1226 16.9607 11.9962 17.0663ZM9.28032 11.0064L12.0015 13.5007L14.7202 11.0087L11.999 8.51436L9.28032 11.0064ZM2.67512 8.54949L0 11.0017L2.67832 13.4567L5.35312 11.0043L2.67512 8.54949Z" fill="#F4B92E"/>
</svg>

