<svg width="36" height="36" viewBox="0 0 36 36" fill="none" xmlns="http://www.w3.org/2000/svg">
<path d="M35.9876 18.0075V17.9377C35.9522 8.06067 27.877 0 17.9938 0C8.11056 0 0 8.06067 0 18.0075C0 27.9555 8.07386 36 17.9938 36C22.5457 36.003 26.9236 34.2769 30.2166 31.1805C30.5409 30.8886 30.7342 30.4817 30.7541 30.0493C30.7739 29.6169 30.6185 29.1945 30.3222 28.8749C30.0259 28.5554 29.6129 28.3649 29.174 28.3454C28.7352 28.3258 28.3064 28.4789 27.9821 28.7708L27.9466 28.8057C26.5258 30.1365 24.8467 31.1707 23.01 31.8462C21.1734 32.5217 19.2172 32.8246 17.2588 32.7367C15.3005 32.6488 13.3803 32.1719 11.6136 31.3347C9.84697 30.4974 8.27025 29.3171 6.97812 27.8645L14.6648 15.7199V21.3397C14.6648 24.0249 15.7276 24.8988 16.6209 25.1432C17.5142 25.3875 18.8542 25.2105 20.3055 22.9429L24.5227 16.1961C24.6353 15.9992 24.7657 15.8122 24.9099 15.6364V19.0584C24.9099 21.5703 25.9373 23.5948 27.7075 24.571C28.5246 25.0093 29.447 25.2214 30.3767 25.1848C31.3064 25.1481 32.2086 24.8641 32.9876 24.3628C35.0323 23.0551 36.1306 20.765 35.9876 18.0075ZM31.3111 21.5417C31.0271 21.7344 30.696 21.8488 30.3521 21.8732C30.0082 21.8975 29.6639 21.8308 29.3549 21.68C28.6463 21.2624 28.2199 20.3212 28.2199 19.0297V15.0742C28.2199 13.1918 27.4759 11.8292 26.2018 11.4827C24.0394 10.8394 22.4122 13.471 21.8087 14.4484L17.9938 20.4845V13.0521C17.9584 11.343 17.3902 10.3308 16.3274 10.0154C15.6188 9.80719 14.556 9.91315 13.5298 11.449L4.99286 24.9188C3.85716 22.7866 3.26199 20.4154 3.25814 18.0075C3.25814 9.87575 9.88071 3.27987 17.9938 3.27987C26.1069 3.27987 32.7295 9.87575 32.7295 18.0075V18.0785C32.8142 19.6468 32.303 20.9059 31.3123 21.5317L31.3111 21.5417Z" fill="white"/>
</svg>

