<svg width="36" height="36" viewBox="0 0 36 36" fill="none" xmlns="http://www.w3.org/2000/svg">
<path d="M25.6553 20.2477V11H27.5143V20.2477H25.6553Z" fill="#F7A600"/>
<path d="M3.99327 22.9933H0.00878906V13.7471H3.83343C5.69103 13.7471 6.77535 14.7608 6.77535 16.3448C6.77535 17.3716 6.07983 18.0325 5.59743 18.2543C6.17199 18.5135 6.90783 19.0981 6.90783 20.3322C6.90783 22.0573 5.69103 22.9933 3.99327 22.9933ZM3.68655 15.3584H1.86639V17.4882H3.68655C4.47567 17.4882 4.91775 17.0591 4.91775 16.4226C4.91775 15.7861 4.47567 15.3584 3.68655 15.3584ZM3.80607 19.1111H1.86639V21.3834H3.80463C4.64847 21.3834 5.04879 20.8636 5.04879 20.24C5.04879 19.6165 4.64703 19.1111 3.80607 19.1111Z" fill="white"/>
<path d="M12.577 19.2003V22.9933H10.7309V19.2003L7.86963 13.7471H9.88995L11.6669 17.4738L13.4194 13.7471H15.4383L12.577 19.2003Z" fill="white"/>
<path d="M20.7071 22.9933H16.7227V13.7471H20.5473C22.4049 13.7471 23.4892 14.7608 23.4892 16.3448C23.4892 17.3716 22.7937 18.0325 22.3113 18.2543C22.8859 18.5135 23.6217 19.0981 23.6217 20.3322C23.6217 22.0573 22.4063 22.9933 20.7071 22.9933ZM20.4004 15.3584H18.5817V17.4882H20.4004C21.1895 17.4882 21.6316 17.0591 21.6316 16.4226C21.6302 15.7861 21.1881 15.3584 20.4004 15.3584ZM20.5199 19.1111H18.5817V21.3834H20.5199C21.3638 21.3834 21.7641 20.8636 21.7641 20.24C21.7641 19.6165 21.3623 19.1111 20.5199 19.1111Z" fill="white"/>
<path d="M33.5046 15.3584V22.9948H31.6456V15.3584H29.1587V13.7471H35.9915V15.3584H33.5046Z" fill="white"/>
</svg>

