<svg width="36" height="36" viewBox="0 0 36 36" fill="none" xmlns="http://www.w3.org/2000/svg">
<path d="M18 36C27.9411 36 36 27.9411 36 18C36 8.05887 27.9411 0 18 0C8.05887 0 0 8.05887 0 18C0 27.9411 8.05887 36 18 36Z" fill="#0093DD"/>
<path fill-rule="evenodd" clip-rule="evenodd" d="M15.1877 17.9996L21.0377 23.9621L24.7502 20.2496C25.4252 19.5746 26.4377 19.5746 27.0002 20.2496C27.6752 20.9246 27.6752 22.0496 27.0002 22.7246L22.1627 27.6746C21.4877 28.3496 20.4752 28.3496 19.8002 27.6746L12.8252 20.4746V24.7496C12.8252 25.6496 12.0377 26.4371 11.1377 26.4371C10.2377 26.4371 9.4502 25.6496 9.4502 24.7496V11.2496C9.4502 10.3496 10.2377 9.56211 11.1377 9.56211C12.0377 9.56211 12.8252 10.3496 12.8252 11.2496V15.5246L19.8002 8.32461C20.4752 7.64961 21.4877 7.64961 22.1627 8.32461L27.0002 13.2746C27.6752 13.9496 27.6752 15.0746 27.0002 15.7496C26.3252 16.4246 25.3127 16.4246 24.7502 15.7496L21.0377 11.9246L15.1877 17.9996ZM21.0377 16.3121C21.9377 16.3121 22.7252 17.0996 22.7252 17.9996C22.7252 18.8996 21.9377 19.6871 21.0377 19.6871C20.1377 19.6871 19.3502 18.8996 19.3502 17.9996C19.3502 17.0996 20.1377 16.3121 21.0377 16.3121Z" fill="white"/>
</svg>

