<svg width="31" height="22" viewBox="0 0 31 22" fill="none" xmlns="http://www.w3.org/2000/svg">
<g opacity="0.3">
<path d="M5.09882 10.0111C6.50688 10.0111 7.64833 8.86967 7.64833 7.46162C7.64833 6.05356 6.50688 4.91211 5.09882 4.91211C3.69077 4.91211 2.54932 6.05356 2.54932 7.46162C2.54932 8.86967 3.69077 10.0111 5.09882 10.0111Z" fill="white"/>
<path d="M8.5026 11.7958C7.841 12.2938 7.30426 12.9389 6.9348 13.6801C6.56534 14.4212 6.37327 15.2381 6.37376 16.0662V16.3849H0.956065C0.433416 16.3849 0 15.9515 0 15.4288V14.7915C0 12.8538 1.56795 11.2859 3.50557 11.2859H6.69245C7.35532 11.2859 7.97995 11.4771 8.5026 11.7958Z" fill="white"/>
<path d="M25.4948 10.0111C26.9029 10.0111 28.0443 8.86967 28.0443 7.46162C28.0443 6.05356 26.9029 4.91211 25.4948 4.91211C24.0868 4.91211 22.9453 6.05356 22.9453 7.46162C22.9453 8.86967 24.0868 10.0111 25.4948 10.0111Z" fill="white"/>
<path d="M30.5939 14.7915V15.4288C30.5939 15.9515 30.1605 16.3849 29.6378 16.3849H24.2201V16.0662C24.2201 14.3198 23.3788 12.7646 22.0913 11.7958C22.614 11.4771 23.2386 11.2859 23.9015 11.2859H27.0883C29.026 11.2859 30.5939 12.8538 30.5939 14.7915Z" fill="white"/>
<path d="M15.2969 10.6485C17.409 10.6485 19.1212 8.93634 19.1212 6.82426C19.1212 4.71218 17.409 3 15.2969 3C13.1848 3 11.4727 4.71218 11.4727 6.82426C11.4727 8.93634 13.1848 10.6485 15.2969 10.6485Z" fill="white"/>
<path d="M18.8028 12.5605H11.7917C10.8622 12.5612 9.97091 12.9308 9.31364 13.5881C8.65636 14.2453 8.28681 15.1366 8.28613 16.0661V17.9782C8.28613 18.506 8.71445 18.9343 9.2422 18.9343H21.3524C21.6059 18.9343 21.8491 18.8336 22.0284 18.6543C22.2077 18.475 22.3084 18.2318 22.3084 17.9782V16.0661C22.3077 15.1366 21.9382 14.2453 21.2809 13.5881C20.6236 12.9308 19.7324 12.5612 18.8028 12.5605Z" fill="white"/>
</g>
</svg>

